HIERARCHY
ROOT Hips
{
 OFFSET 0.000000 0.000000 0.000000
 CHANNELS 6 Xposition Yposition Zposition Yrotation Xrotation Zrotation
 JOINT Chest
 {
  OFFSET 0.000000 9.303000 0.001900
  CHANNELS 3 Yrotation Xrotation Zrotation
  JOINT Chest2
  {
   OFFSET 0.000000 9.301100 -0.003900
   CHANNELS 3 Yrotation Xrotation Zrotation
   JOINT Chest3
   {
    OFFSET 0.000000 9.262800 0.000000
    CHANNELS 3 Yrotation Xrotation Zrotation
    JOINT Chest4
    {
     OFFSET 0.000000 9.253300 0.000000
     CHANNELS 3 Yrotation Xrotation Zrotation
     JOINT Neck
     {
      OFFSET 0.000000 14.010300 0.000000
      CHANNELS 3 Yrotation Xrotation Zrotation
      JOINT Head
      {
       OFFSET 0.000000 8.657600 -0.008300
       CHANNELS 3 Yrotation Xrotation Zrotation
       End Site
       {
        OFFSET 0.000000 16.540200 -0.004400
       }
      }
     }
     JOINT RightCollar
     {
      OFFSET -2.834100 9.267700 0.000000
      CHANNELS 3 Yrotation Xrotation Zrotation
      JOINT RightShoulder
      {
       OFFSET -13.135200 0.000000 0.000000
       CHANNELS 3 Yrotation Xrotation Zrotation
       JOINT RightElbow
       {
        OFFSET 0.000000 -28.893500 0.000000
        CHANNELS 3 Yrotation Xrotation Zrotation
        JOINT RightWrist
        {
         OFFSET 0.000000 -23.344000 0.000000
         CHANNELS 3 Yrotation Xrotation Zrotation
         End Site
         {
          OFFSET 0.000000 -17.223000 0.000000
         }
        }
       }
      }
     }
     JOINT LeftCollar
     {
      OFFSET 2.834100 9.267700 0.000000
      CHANNELS 3 Yrotation Xrotation Zrotation
      JOINT LeftShoulder
      {
       OFFSET 13.135200 0.000000 0.000000
       CHANNELS 3 Yrotation Xrotation Zrotation
       JOINT LeftElbow
       {
        OFFSET 0.000000 -28.893500 0.000000
        CHANNELS 3 Yrotation Xrotation Zrotation
        JOINT LeftWrist
        {
         OFFSET 0.000000 -23.344000 0.000000
         CHANNELS 3 Yrotation Xrotation Zrotation
         End Site
         {
          OFFSET 0.000000 -17.223000 0.000000
         }
        }
       }
      }
     }
    }
   }
  }
 }
 JOINT RightHip
 {
  OFFSET -7.547200 -0.009500 -0.001000
  CHANNELS 3 Yrotation Xrotation Zrotation
  JOINT RightKnee
  {
   OFFSET 0.000000 -39.762800 0.000900
   CHANNELS 3 Yrotation Xrotation Zrotation
   JOINT RightAnkle
   {
    OFFSET 0.000000 -38.588200 0.001600
    CHANNELS 3 Yrotation Xrotation Zrotation
    JOINT RightToe
    {
     OFFSET 0.000000 -4.693300 10.419700
     CHANNELS 3 Yrotation Xrotation Zrotation
     End Site
     {
      OFFSET 0.000000 -1.379900 5.669300
     }
    }
   }
  }
 }
 JOINT LeftHip
 {
  OFFSET 7.547200 -0.009500 -0.001000
  CHANNELS 3 Yrotation Xrotation Zrotation
  JOINT LeftKnee
  {
   OFFSET 0.000000 -39.762800 0.000900
   CHANNELS 3 Yrotation Xrotation Zrotation
   JOINT LeftAnkle
   {
    OFFSET 0.000000 -38.588200 0.001600
    CHANNELS 3 Yrotation Xrotation Zrotation
    JOINT LeftToe
    {
     OFFSET 0.000000 -4.693300 10.419700
     CHANNELS 3 Yrotation Xrotation Zrotation
     End Site
     {
      OFFSET 0.000000 -1.379900 5.669300
     }
    }
   }
  }
 }
}
MOTION
Frames: 15
Frame Time: 0.008333
0.000000 82.880600 0.000000 0.000000 -5.767877 0.000000 0.000000 11.653817 0.000000 0.000000 -5.885947 0.000000 0.000000 -0.000000 0.000000 0.000000 -0.000000 0.000000 0.000000 12.528835 0.000000 0.000000 0.711642 0.000000 0.000000 -0.000000 0.000000 0.000000 0.000000 -90.000000 0.000000 -2.309062 0.000000 0.000000 2.309062 0.000000 0.000000 -0.000000 0.000000 0.000000 -0.000000 90.000000 0.000000 -2.309062 0.000000 0.000000 2.309062 0.000000 0.000000 8.520406 0.000000 0.000000 1.905762 0.000000 -0.000000 -4.658285 0.000000 0.000000 -0.000000 0.000000 0.000000 8.520406 0.000000 0.000000 1.905762 0.000000 -0.000000 -4.658285 0.000000 0.000000 -0.000000 0.000000
-8.919236 45.938165 27.697218 162.398764 -12.791952 0.262982 3.092283 8.554121 0.397926 0.164756 0.466602 0.028685 0.290305 0.806678 0.050760 2.905198 7.975232 0.685065 -0.615751 22.166088 0.019173 -0.667226 -2.038835 0.158453 3.178904 1.365991 -2.824125 -3.077190 -11.017288 -2.552907 -17.609377 -78.550493 31.028557 -8.375197 -3.379221 -26.347199 -9.970712 0.294845 -3.623645 16.222013 -10.483272 6.511872 32.849763 -63.886599 -48.976637 7.080094 -2.865929 13.444066 -20.286774 -75.068044 17.410412 -110.492669 83.261958 -113.222741 -10.714325 -8.964613 -0.602467 0.104771 -0.323705 0.046044 4.036903 -74.656699 14.528306 83.611463 78.448897 81.228026 -12.999553 -7.616926 3.927253 0.096135 0.429916 0.044627
-8.918342 45.938504 27.698081 162.394300 -12.790193 0.257825 3.099061 8.550395 0.404093 0.164514 0.467224 0.029039 0.289771 0.806978 0.050367 2.903778 7.976319 0.683767 -0.619725 22.170781 0.018193 -0.664306 -2.041765 0.159013 3.180106 1.366307 -2.818486 -3.078120 -11.013254 -2.554049 -17.593334 -78.550423 31.014334 -8.379025 -3.381291 -26.350191 -9.970834 0.296865 -3.625768 16.228377 -10.483592 6.514378 32.853099 -63.887821 -48.985850 7.078145 -2.866148 13.445290 -20.301462 -75.066995 17.431357 -110.448287 83.261196 -113.183097 -10.646701 -8.951778 -0.604132 0.108553 -0.329008 0.045407 4.026713 -74.659380 14.547715 83.606618 78.450924 81.225014 -12.999617 -7.616699 3.919286 0.095899 0.429982 0.052047
-8.917939 45.938951 27.698748 162.390789 -12.788422 0.255477 3.103568 8.547816 0.407119 0.165989 0.465356 0.028528 0.288520 0.808330 0.050518 2.901143 7.977441 0.682049 -0.619802 22.172465 0.020907 -0.665205 -2.035857 0.162094 3.188092 1.364402 -2.816022 -3.080097 -11.004653 -2.551060 -17.565066 -78.548910 30.987591 -8.384742 -3.389904 -26.367365 -9.967202 0.301608 -3.624141 16.235968 -10.485878 6.514087 32.859861 -63.888947 -49.002878 7.078376 -2.867640 13.446241 -20.306413 -75.066351 17.441518 -110.416827 83.262962 -113.153072 -10.600566 -8.944216 -0.609906 0.093385 -0.330795 0.047413 4.024374 -74.660592 14.556119 83.605449 78.451596 81.222165 -12.996210 -7.618875 3.922000 0.097145 0.431793 0.050350
-8.918908 45.939902 27.696941 162.392659 -12.798449 0.264171 3.099262 8.558065 0.397133 0.165876 0.465370 0.028633 0.289067 0.806162 0.053368 2.898073 7.979182 0.683055 -0.619068 22.173813 0.018405 -0.664490 -2.035735 0.161487 3.195272 1.362540 -2.823571 -3.080417 -10.994894 -2.544789 -17.557045 -78.557049 30.972235 -8.388752 -3.386231 -26.365175 -9.959132 0.309131 -3.625144 16.246398 -10.492438 6.510279 32.863530 -63.886160 -49.022060 7.071426 -2.860105 13.443869 -20.252916 -75.058381 17.390394 -110.375948 83.260109 -113.108410 -10.629504 -8.944101 -0.603517 0.078234 -0.328551 0.042463 4.061306 -74.649401 14.520348 83.616220 78.453929 81.230281 -13.001575 -7.620246 3.927584 0.095666 0.430497 0.048387
-8.920815 45.940894 27.694932 162.397533 -12.807268 0.277491 3.093069 8.564744 0.385998 0.165865 0.465601 0.028611 0.288984 0.807458 0.052814 2.899218 7.978580 0.682887 -0.621200 22.175809 0.016452 -0.668971 -2.033187 0.161972 3.194771 1.363726 -2.827115 -3.082037 -10.990384 -2.543825 -17.557022 -78.564146 30.969798 -8.393429 -3.382228 -26.362246 -9.956309 0.318508 -3.624261 16.257677 -10.499700 6.502651 32.866025 -63.878718 -49.030734 7.068793 -2.861189 13.449337 -20.184504 -75.055567 17.318029 -110.364023 83.259442 -113.089810 -10.681264 -8.942474 -0.595141 0.083109 -0.328840 0.036763 4.117124 -74.638643 14.462375 83.619433 78.454101 81.230022 -13.006992 -7.617116 3.931913 0.102221 0.426803 0.048365
-8.918165 45.941122 27.697694 162.391814 -12.795304 0.256785 3.102929 8.550382 0.410654 0.165852 0.465492 0.028631 0.288128 0.808468 0.050618 2.902206 7.977397 0.682365 -0.622816 22.176717 0.014945 -0.671011 -2.028730 0.158466 3.191959 1.363428 -2.827295 -3.082076 -10.986941 -2.544811 -17.553325 -78.569410 30.967356 -8.397741 -3.380226 -26.363561 -9.956943 0.323888 -3.621095 16.266829 -10.502239 6.494025 32.854165 -63.879716 -49.028337 7.076019 -2.859663 13.455876 -20.254902 -75.055443 17.391198 -110.351257 83.266402 -113.083693 -10.589388 -8.940085 -0.606651 0.119573 -0.325875 0.049128 4.052953 -74.652528 14.537440 83.608466 78.453196 81.218174 -13.001182 -7.620128 3.935623 0.095135 0.431784 0.045539
-8.915890 45.941604 27.699061 162.378472 -12.790385 0.241828 3.121819 8.542086 0.429955 0.165980 0.465595 0.028525 0.288482 0.808670 0.050406 2.899971 7.979074 0.681552 -0.623699 22.176120 0.013796 -0.670896 -2.026921 0.156951 3.192073 1.362297 -2.827757 -3.083567 -10.984966 -2.544406 -17.547299 -78.571898 30.965467 -8.398833 -3.375366 -26.357740 -9.957847 0.325076 -3.618773 16.270474 -10.501976 6.490115 32.851107 -63.878597 -49.028827 7.082464 -2.862384 13.452185 -20.309940 -75.052841 17.453873 -110.373291 83.272162 -113.116968 -10.502702 -8.932156 -0.618198 0.158336 -0.329145 0.064402 4.004051 -74.658523 14.602783 83.630281 78.450299 81.237040 -12.992302 -7.628767 3.942576 0.083493 0.436372 0.040421
-8.920094 45.942503 27.696227 162.393403 -12.798035 0.265757 3.101882 8.550017 0.403583 0.164731 0.464538 0.028805 0.289821 0.809119 0.049844 2.901382 7.977444 0.680198 -0.624219 22.179504 0.014259 -0.668888 -2.025547 0.154135 3.188939 1.365238 -2.829957 -3.082046 -10.983541 -2.542006 -17.549217 -78.573734 30.970615 -8.395381 -3.376903 -26.355501 -9.958974 0.328441 -3.616034 16.280297 -10.498868 6.485015 32.854196 -63.876204 -49.029835 7.075779 -2.860061 13.445062 -20.212438 -75.055382 17.348532 -110.329964 83.264500 -113.062870 -10.672910 -8.939179 -0.598199 0.113705 -0.324071 0.053775 4.090352 -74.650533 14.499731 83.626754 78.449194 81.230590 -13.001769 -7.609290 3.940601 0.090801 0.420309 0.046326
-8.927057 45.943970 27.689431 162.417250 -12.823930 0.310676 3.069462 8.578043 0.355182 0.165868 0.463120 0.028129 0.288208 0.808559 0.050601 2.899374 7.978543 0.680890 -0.620668 22.182030 0.011559 -0.668422 -2.025635 0.153014 3.182145 1.368255 -2.830670 -3.079918 -10.975837 -2.534116 -17.514286 -78.586270 30.945955 -8.397331 -3.372518 -26.353033 -9.949429 0.331779 -3.616464 16.285603 -10.497693 6.485236 32.858127 -63.875076 -49.042630 7.076551 -2.859532 13.446087 -20.041049 -75.047436 17.164675 -110.250049 83.249950 -112.965488 -10.976974 -8.951841 -0.560766 -0.002288 -0.317599 0.024986 4.262730 -74.622114 14.301113 83.620836 78.453169 81.228188 -13.022603 -7.588195 3.933268 0.112738 0.401571 0.057265
-8.928439 45.944682 27.687113 162.428091 -12.833001 0.317062 3.059179 8.584509 0.346773 0.167012 0.465141 0.029088 0.287394 0.808176 0.050522 2.894383 7.981149 0.682983 -0.615941 22.182683 0.007758 -0.670769 -2.025518 0.153208 3.171923 1.372636 -2.835354 -3.069934 -10.979920 -2.529650 -17.521233 -78.592099 30.956250 -8.400094 -3.370076 -26.344914 -9.941924 0.330980 -3.619084 16.282038 -10.495597 6.488398 32.892879 -63.875850 -49.065005 7.072605 -2.850501 13.448060 -20.011347 -75.039153 17.128227 -110.217793 83.244371 -112.930440 -11.047155 -8.956375 -0.553199 -0.019854 -0.315355 0.017782 4.286894 -74.613636 14.267551 83.629350 78.455422 81.232912 -13.021219 -7.581117 3.937425 0.110837 0.397195 0.055615
-8.925299 45.944271 27.690450 162.419600 -12.816040 0.290805 3.075238 8.565352 0.376221 0.165338 0.465944 0.028270 0.287663 0.808480 0.051144 2.895854 7.983411 0.686077 -0.618962 22.183198 0.002855 -0.664088 -2.022147 0.144331 3.165362 1.370313 -2.840334 -3.070335 -10.978902 -2.524977 -17.511234 -78.597970 30.950297 -8.389497 -3.371553 -26.346750 -9.940751 0.331163 -3.618433 16.281286 -10.493735 6.487621 32.906296 -63.875932 -49.080988 7.071800 -2.849807 13.448739 -20.122647 -75.045966 17.239791 -110.278414 83.254088 -113.003758 -10.867485 -8.947865 -0.577677 0.058801 -0.321079 0.033528 4.201753 -74.635160 14.367793 83.640695 78.455016 81.238595 -13.010164 -7.584720 3.948825 0.097463 0.402606 0.048455
-8.923008 45.943803 27.692977 162.415327 -12.801858 0.270875 3.081932 8.549005 0.397868 0.167197 0.468139 0.027406 0.286120 0.807636 0.052203 2.895039 7.984784 0.685108 -0.618314 22.183641 0.001525 -0.662493 -2.019203 0.141186 3.165189 1.368121 -2.842496 -3.076272 -10.974065 -2.522930 -17.517905 -78.607987 30.965665 -8.389673 -3.369355 -26.350761 -9.940181 0.329240 -3.617534 16.293307 -10.488988 6.486315 32.906939 -63.879206 -49.093661 7.073171 -2.846697 13.453515 -20.195148 -75.053948 17.311978 -110.338638 83.260361 -113.072154 -10.694180 -8.940522 -0.600470 0.110928 -0.326224 0.049738 4.160552 -74.651327 14.414545 83.622811 78.451879 81.223850 -12.994155 -7.591993 3.956604 0.080640 0.411937 0.041249
-8.922877 45.943914 27.691381 162.422451 -12.807930 0.270248 3.073222 8.553603 0.399028 0.167589 0.467238 0.026434 0.285336 0.809286 0.052400 2.893497 7.986613 0.684129 -0.617027 22.184282 0.000009 -0.659575 -2.015671 0.138966 3.169382 1.365572 -2.840671 -3.079531 -10.971663 -2.529785 -17.592810 -78.607519 31.043081 -8.377534 -3.367919 -26.346569 -9.926354 0.328408 -3.616290 16.294410 -10.485563 6.483809 32.906110 -63.881886 -49.109273 7.079545 -2.845358 13.468160 -20.185453 -75.051968 17.293827 -110.428711 83.260195 -113.161353 -10.629371 -8.940107 -0.610157 0.125765 -0.331368 0.054977 4.164954 -74.644876 14.402659 83.623896 78.451020 81.224002 -12.990776 -7.594706 3.962680 0.076069 0.413848 0.037727
-8.921912 45.943907 27.689837 162.424756 -12.814797 0.267785 3.070599 8.559748 0.402418 0.165409 0.467107 0.027573 0.287390 0.809867 0.050575 2.888238 7.987580 0.682309 -0.613088 22.188703 0.001246 -0.656815 -2.018136 0.136816 3.177602 1.365440 -2.837664 -3.083489 -10.971789 -2.530793 -17.604720 -78.609690 31.055180 -8.376668 -3.380140 -26.348579 -9.905469 0.332808 -3.611636 16.285524 -10.487101 6.479992 32.920984 -63.878015 -49.121542 7.074902 -2.843331 13.463628 -20.177620 -75.046181 17.281753 -110.484673 83.259223 -113.219290 -10.558150 -8.941575 -0.614475 0.135125 -0.332781 0.057384 4.151795 -74.638443 14.414025 83.638524 78.449707 81.238620 -12.995203 -7.597187 3.959083 0.076228 0.414971 0.040462
